<svg id="Grupo_104" data-name="Grupo 104" xmlns="http://www.w3.org/2000/svg" xmlns:xlink="http://www.w3.org/1999/xlink" width="1440" height="2560" viewBox="0 0 1440 2560">
  <defs>
    <clipPath id="clip-path">
      <rect id="Retângulo_35" data-name="Retângulo 35" width="34.97" height="35.5" fill="none"/>
    </clipPath>
    <clipPath id="clip-path-8">
      <rect id="Retângulo_55" data-name="Retângulo 55" width="1440" height="2560" fill="none" stroke="#707070" stroke-width="1"/>
    </clipPath>
    <clipPath id="clip-path-9">
      <rect id="Retângulo_16" data-name="Retângulo 16" width="417.122" height="152.276" fill="#d523c7"/>
    </clipPath>
    <clipPath id="clip-path-10">
      <rect id="Retângulo_34" data-name="Retângulo 34" width="668.6" height="182.33" fill="#d523c7"/>
    </clipPath>
    <clipPath id="clip-path-12">
      <rect id="Retângulo_17" data-name="Retângulo 17" width="491.677" height="371.6" fill="#dbff3c"/>
    </clipPath>
    <clipPath id="clip-path-13">
      <rect id="Retângulo_15" data-name="Retângulo 15" width="766.91" height="362.587" fill="#dbff3c"/>
    </clipPath>
    <clipPath id="clip-path-14">
      <rect id="Retângulo_16-2" data-name="Retângulo 16" width="417.122" height="152.276" fill="#dbff3c"/>
    </clipPath>
    <clipPath id="clip-path-15">
      <rect id="Retângulo_16-3" data-name="Retângulo 16" width="407.237" height="152.276" fill="#dbff3c"/>
    </clipPath>
    <clipPath id="clip-path-16">
      <rect id="Retângulo_16-4" data-name="Retângulo 16" width="417.122" height="144.957" fill="#dbff3c"/>
    </clipPath>
    <clipPath id="clip-path-17">
      <rect id="Retângulo_16-5" data-name="Retângulo 16" width="407.237" height="149.816" fill="#dbff3c"/>
    </clipPath>
  </defs>
  <g id="Grupo_33" data-name="Grupo 33" transform="translate(195 1796)">
    <g id="Grupo_31" data-name="Grupo 31" transform="translate(0 0)" clip-path="url(#clip-path)">
      <path id="Caminho_11" data-name="Caminho 11" d="M15.792,1.428s1.474-3.212,3.08,0,3.212,9.037,5.372,10.493,9.388,4.87,9.388,4.87,3.012,1.306,0,2.962-8.034,3.264-9.339,5.271-5.721,9.539-5.721,9.539-1.255,2.108-2.158,0-3.867-7.48-5.573-9.288-9.59-5.322-9.59-5.322-2.811-1.2,0-2.561a48.625,48.625,0,0,0,8.385-5.07c1.707-1.457,6.157-10.9,6.157-10.9" transform="translate(0 0)" fill="#fff"/>
    </g>
  </g>
  <g id="Grupo_34" data-name="Grupo 34" transform="translate(1312 2327)">
    <g id="Grupo_31-2" data-name="Grupo 31" transform="translate(0 0)" clip-path="url(#clip-path)">
      <path id="Caminho_11-2" data-name="Caminho 11" d="M15.792,1.428s1.474-3.212,3.08,0,3.212,9.037,5.372,10.493,9.388,4.87,9.388,4.87,3.012,1.306,0,2.962-8.034,3.264-9.339,5.271-5.721,9.539-5.721,9.539-1.255,2.108-2.158,0-3.867-7.48-5.573-9.288-9.59-5.322-9.59-5.322-2.811-1.2,0-2.561a48.625,48.625,0,0,0,8.385-5.07c1.707-1.457,6.157-10.9,6.157-10.9" transform="translate(0 0)" fill="#fff"/>
    </g>
  </g>
  <g id="Grupo_35" data-name="Grupo 35" transform="translate(58 665)">
    <g id="Grupo_31-3" data-name="Grupo 31" transform="translate(0 0)" clip-path="url(#clip-path)">
      <path id="Caminho_11-3" data-name="Caminho 11" d="M15.792,1.428s1.474-3.212,3.08,0,3.212,9.037,5.372,10.493,9.388,4.87,9.388,4.87,3.012,1.306,0,2.962-8.034,3.264-9.339,5.271-5.721,9.539-5.721,9.539-1.255,2.108-2.158,0-3.867-7.48-5.573-9.288-9.59-5.322-9.59-5.322-2.811-1.2,0-2.561a48.625,48.625,0,0,0,8.385-5.07c1.707-1.457,6.157-10.9,6.157-10.9" transform="translate(0 0)" fill="#fff"/>
    </g>
  </g>
  <g id="Grupo_37" data-name="Grupo 37" transform="translate(775 2442)">
    <g id="Grupo_31-4" data-name="Grupo 31" transform="translate(0 0)" clip-path="url(#clip-path)">
      <path id="Caminho_11-4" data-name="Caminho 11" d="M15.792,1.428s1.474-3.212,3.08,0,3.212,9.037,5.372,10.493,9.388,4.87,9.388,4.87,3.012,1.306,0,2.962-8.034,3.264-9.339,5.271-5.721,9.539-5.721,9.539-1.255,2.108-2.158,0-3.867-7.48-5.573-9.288-9.59-5.322-9.59-5.322-2.811-1.2,0-2.561a48.625,48.625,0,0,0,8.385-5.07c1.707-1.457,6.157-10.9,6.157-10.9" transform="translate(0 0)" fill="#fff"/>
    </g>
  </g>
  <g id="Grupo_38" data-name="Grupo 38" transform="translate(1374 701)">
    <g id="Grupo_31-5" data-name="Grupo 31" transform="translate(0 0)" clip-path="url(#clip-path)">
      <path id="Caminho_11-5" data-name="Caminho 11" d="M15.792,1.428s1.474-3.212,3.08,0,3.212,9.037,5.372,10.493,9.388,4.87,9.388,4.87,3.012,1.306,0,2.962-8.034,3.264-9.339,5.271-5.721,9.539-5.721,9.539-1.255,2.108-2.158,0-3.867-7.48-5.573-9.288-9.59-5.322-9.59-5.322-2.811-1.2,0-2.561a48.625,48.625,0,0,0,8.385-5.07c1.707-1.457,6.157-10.9,6.157-10.9" transform="translate(0 0)" fill="#fff"/>
    </g>
  </g>
  <g id="Grupo_39" data-name="Grupo 39" transform="translate(964 1533)">
    <g id="Grupo_31-6" data-name="Grupo 31" transform="translate(0 0)" clip-path="url(#clip-path)">
      <path id="Caminho_11-6" data-name="Caminho 11" d="M15.792,1.428s1.474-3.212,3.08,0,3.212,9.037,5.372,10.493,9.388,4.87,9.388,4.87,3.012,1.306,0,2.962-8.034,3.264-9.339,5.271-5.721,9.539-5.721,9.539-1.255,2.108-2.158,0-3.867-7.48-5.573-9.288-9.59-5.322-9.59-5.322-2.811-1.2,0-2.561a48.625,48.625,0,0,0,8.385-5.07c1.707-1.457,6.157-10.9,6.157-10.9" transform="translate(0 0)" fill="#fff"/>
    </g>
  </g>
  <g id="Grupo_40" data-name="Grupo 40" transform="translate(289 23)">
    <g id="Grupo_31-7" data-name="Grupo 31" transform="translate(0 0)" clip-path="url(#clip-path)">
      <path id="Caminho_11-7" data-name="Caminho 11" d="M15.792,1.428s1.474-3.212,3.08,0,3.212,9.037,5.372,10.493,9.388,4.87,9.388,4.87,3.012,1.306,0,2.962-8.034,3.264-9.339,5.271-5.721,9.539-5.721,9.539-1.255,2.108-2.158,0-3.867-7.48-5.573-9.288-9.59-5.322-9.59-5.322-2.811-1.2,0-2.561a48.625,48.625,0,0,0,8.385-5.07c1.707-1.457,6.157-10.9,6.157-10.9" transform="translate(0 0)" fill="#fff"/>
    </g>
  </g>
  <circle id="Elipse_581" data-name="Elipse 581" cx="9" cy="9" r="9" transform="translate(1338 768)" fill="#fff"/>
  <circle id="Elipse_582" data-name="Elipse 582" cx="9" cy="9" r="9" transform="translate(162 1253)" fill="#fff"/>
  <circle id="Elipse_583" data-name="Elipse 583" cx="9" cy="9" r="9" transform="translate(1060 1832)" fill="#fff"/>
  <circle id="Elipse_584" data-name="Elipse 584" cx="9" cy="9" r="9" transform="translate(361 83)" fill="#fff"/>
  <circle id="Elipse_585" data-name="Elipse 585" cx="9" cy="9" r="9" transform="translate(702 2490)" fill="#fff"/>
  <circle id="Elipse_586" data-name="Elipse 586" cx="9" cy="9" r="9" transform="translate(468 1592)" fill="#fff"/>
  <g id="Grupo_de_máscara_1" data-name="Grupo de máscara 1" clip-path="url(#clip-path-8)">
    <g id="Grupo_18" data-name="Grupo 18" transform="translate(370.359 1369.685) rotate(180)">
      <g id="Grupo_3" data-name="Grupo 3" clip-path="url(#clip-path-9)">
        <path id="Caminho_4" data-name="Caminho 4" d="M300.208,0H32.869S0,4.258,0,40.464,36.156,76.671,36.156,76.671H78.887s36.156,3.195,37.253,39.4,44.919,36.2,44.919,36.2H300.208" transform="translate(116.914 -0.001)" fill="#d523c7"/>
      </g>
    </g>
    <g id="Grupo_21" data-name="Grupo 21" transform="translate(1478.8 2528.899) rotate(180)">
      <g id="Grupo_20" data-name="Grupo 20" transform="translate(0 0)" clip-path="url(#clip-path-10)">
        <path id="Caminho_7" data-name="Caminho 7" d="M0,182.33H290.709s49.43.467,48.365-52.829c0,0,2.657-37.4,53.676-37.4h236.5s40.391-6.545,39.329-46.283S624.469,0,624.469,0H2.126Z" transform="translate(0 0)" fill="#d523c7"/>
      </g>
      <g id="Grupo_57" data-name="Grupo 57" clip-path="url(#clip-path-10)">
        <path id="Caminho_15" data-name="Caminho 15" d="M0,182.33H290.709s49.43.467,48.365-52.829c0,0,2.657-37.4,53.676-37.4h236.5s40.391-6.545,39.329-46.283S624.469,0,624.469,0H2.126Z" transform="translate(0 0)" fill="#d523c7"/>
      </g>
    </g>
    <g id="Grupo_28" data-name="Grupo 28" transform="translate(924.116 1367.334)">
      <g id="Grupo_6" data-name="Grupo 6" transform="translate(122.771)">
        <g id="Grupo_5" data-name="Grupo 5" clip-path="url(#clip-path-12)">
          <path id="Caminho_6" data-name="Caminho 6" d="M491.677,0H78.252S46.846,8.519,46.114,35.5s22.643,35.5,22.643,35.5h46.749s31.406,7.1,33.6,30.528c0,0,3.652,29.817,12.417,36.2s24.1,11.359,24.1,11.359H332.442s30.678,6.39,30.678,37.626-34.33,33.366-34.33,33.366H300.3s-37.984,7.1-37.984,32.655-17.528,44.725-41.634,44.725H33.7S-2.094,301,.1,332.239s16.8,31.946,16.8,31.946,2.191,6.389,37.251,7.1,437.529,0,437.529,0Z" transform="translate(0)" fill="#dbff3c"/>
        </g>
      </g>
      <path id="Caminho_8" data-name="Caminho 8" d="M77.243,37.537c0,20.731-17.292,37.537-38.622,37.537S0,58.267,0,37.537,17.292,0,38.622,0,77.243,16.806,77.243,37.537" transform="translate(77.243 376.441) rotate(180)" fill="#dbff3c"/>
    </g>
    <g id="Grupo_27" data-name="Grupo 27" transform="translate(-47 251.526)">
      <g id="Grupo_11" data-name="Grupo 11" transform="translate(0 0)">
        <g id="Grupo_1" data-name="Grupo 1" clip-path="url(#clip-path-13)">
          <path id="Caminho_2" data-name="Caminho 2" d="M0,0,483.18,1.6s36.706,2.131,36.706,41-44.921,34.075-44.921,34.075-32.322,9.048-32.322,35.141,21.364,34.075,21.364,34.075l156.13,2.661s31.775,14.377,30.678,37.27-28.488,37.272-28.488,37.272H328.694s-33.416,7.453-32.322,35.672,23.01,34.077,23.01,34.077L525.911,295.5s32.322,11.182,31.228,34.611-23.557,32.478-23.557,32.478H0Z" transform="translate(0 -0.001)" fill="#dbff3c"/>
        </g>
      </g>
      <path id="Caminho_9" data-name="Caminho 9" d="M77.243,37.537c0,20.731-17.292,37.537-38.622,37.537S0,58.267,0,37.537,17.292,0,38.622,0,77.243,16.806,77.243,37.537" transform="translate(767.359 219.053) rotate(180)" fill="#dbff3c"/>
    </g>
    <g id="Grupo_29" data-name="Grupo 29" transform="translate(-403 1779.754)">
      <g id="Grupo_26" data-name="Grupo 26" transform="translate(0 0)">
        <g id="Grupo_22" data-name="Grupo 22" transform="translate(773.359 152.276) rotate(180)">
          <g id="Grupo_3-2" data-name="Grupo 3" clip-path="url(#clip-path-14)">
            <path id="Caminho_4-2" data-name="Caminho 4" d="M300.208,0H32.869S0,4.258,0,40.464,36.156,76.671,36.156,76.671H78.887s36.156,3.195,37.253,39.4,44.919,36.2,44.919,36.2H300.208" transform="translate(116.914 -0.001)" fill="#dbff3c"/>
          </g>
        </g>
        <g id="Grupo_23" data-name="Grupo 23" transform="translate(407.237 152.276) rotate(180)">
          <g id="Grupo_3-3" data-name="Grupo 3" transform="translate(0 0)" clip-path="url(#clip-path-15)">
            <path id="Caminho_4-3" data-name="Caminho 4" d="M0,152.276H261s32.09-4.258,32.09-40.464-35.3-36.206-35.3-36.206H216.076s-35.3-3.195-36.37-39.4S135.852,0,135.852,0H0" transform="translate(0 0.001)" fill="#dbff3c"/>
          </g>
        </g>
        <g id="Grupo_24" data-name="Grupo 24" transform="translate(771.359 225.557) rotate(180)">
          <g id="Grupo_3-4" data-name="Grupo 3" clip-path="url(#clip-path-16)">
            <path id="Caminho_4-4" data-name="Caminho 4" d="M300.208,144.957H32.869S0,140.9,0,106.437,36.156,71.971,36.156,71.971H78.887s36.156-3.041,37.253-37.507S161.059,0,161.059,0H300.208" transform="translate(116.914 0.001)" fill="#dbff3c"/>
          </g>
        </g>
        <g id="Grupo_25" data-name="Grupo 25" transform="translate(407.237 225.557) rotate(180)">
          <g id="Grupo_3-5" data-name="Grupo 3" transform="translate(0 0)" clip-path="url(#clip-path-17)">
            <path id="Caminho_4-5" data-name="Caminho 4" d="M0,0H261s32.09,4.19,32.09,39.811-35.3,35.621-35.3,35.621H216.076s-35.3,3.143-36.37,38.765-43.855,35.619-43.855,35.619H0" transform="translate(0 -0.001)" fill="#dbff3c"/>
          </g>
        </g>
      </g>
      <path id="Caminho_10" data-name="Caminho 10" d="M77.243,37.537c0,20.731-17.292,37.537-38.622,37.537S0,58.267,0,37.537,17.292,0,38.622,0,77.243,16.806,77.243,37.537" transform="translate(770.359 150.628) rotate(180)" fill="#dbff3c"/>
    </g>
    <ellipse id="Elipse_579" data-name="Elipse 579" cx="323.5" cy="314.5" rx="323.5" ry="314.5" transform="translate(-94 2158)" fill="#fff" opacity="0.07"/>
    <ellipse id="Elipse_580" data-name="Elipse 580" cx="323.5" cy="315" rx="323.5" ry="315" transform="translate(1023 -87)" fill="#fff" opacity="0.07"/>
    <g id="Grupo_4" data-name="Grupo 4" transform="translate(1023.237 21.965)">
      <g id="Grupo_3-6" data-name="Grupo 3" transform="translate(0 0)" clip-path="url(#clip-path-9)">
        <path id="Caminho_4-6" data-name="Caminho 4" d="M354.7,0H87.358S54.489,4.258,54.489,40.464,90.645,76.671,90.645,76.671h42.731s36.156,3.195,37.253,39.4,44.919,36.2,44.919,36.2H354.7" transform="translate(62.425 -0.001)" fill="#d523c7"/>
        <path id="Caminho_5" data-name="Caminho 5" d="M77.243,38.048c0,20.731-17.292,37.537-38.622,37.537S0,58.778,0,38.048,17.292.511,38.622.511,77.243,17.317,77.243,38.048" transform="translate(0 0.554)" fill="#d523c7"/>
      </g>
    </g>
  </g>
</svg>
