<svg xmlns="http://www.w3.org/2000/svg" width="514.8" height="886.872" viewBox="0 0 514.8 886.872">
  <g id="luva" transform="translate(-466 -1132.667)">
    <g id="mão" transform="translate(466 1132.667)">
      <g id="sombra_mão" data-name="sombra mão" transform="translate(44.005 54.895)" opacity="0.15">
        <path id="Caminho_36" data-name="Caminho 36" d="M1486.258,945.763c-30.061-9.582-61.44,36.762-69.347,48.966l-37.849,74.2V778.276a43.9,43.9,0,0,0-12.441-30.53,41.707,41.707,0,0,0-29.851-12.531c-22.77.085-41.228,18.723-41.907,41.867V731.847a42.1,42.1,0,0,0-84.2,0v33.309a42.1,42.1,0,0,0-42.1-42.1c-23.245,0-41.335,19.12-41.335,42.366V892.129c-1.483-21.882-19.408-39.179-41.364-39.179-22.929,0-40.764,19.119-40.764,42.365v173.612l.068,160.576a224.65,224.65,0,0,0,8.292,58.327c12.921,47.454,20.076,80.073,22.181,123.57a302.542,302.542,0,0,1-1.488,48.292l-.068.43c-1.483,13.929,5.672,27.621,19,35,21.633,12.135,61.661,26.845,127.951,26.6,70.2-.261,108.153-18.542,126.695-32.257,9.724-7.1,15.322-17.767,15.282-28.985v-.215c3.266-26.478,5.53-82.11,44.67-123.169,41.55-45.325,36.043-162.416,45.043-197.479l58.644-135.022C1519.952,984.014,1518.729,956.11,1486.258,945.763Z" transform="translate(-1045.1 -689.747)" fill="#fff"/>
      </g>
      <path id="Caminho_35" data-name="Caminho 35" d="M1403.692,788.392V1039.6l18.38-36.116c.167-.322.356-.638.552-.949,16.126-24.894,48.385-65.035,82.57-54.077,19.91,6.341,28.947,18.167,33.024,26.975,6.232,13.465,5.886,30.58-.943,46.971L1478,1158.89c-2.283,9.475-3.651,25.952-5.215,44.942-4.329,52.283-10.245,123.884-42.809,159.4-33.541,35.185-38.628,82.277-41.671,110.408q-.473,4.432-.908,8.187c-.161,14.833-7.376,28.424-19.87,37.565-21.249,15.712-61.942,34.541-134.911,34.806h-1.7c-68.467.012-110.356-15.39-133.5-28.367-16.932-9.377-26.636-27.418-24.659-45.936.012-.178.11-.793.138-.978a297.374,297.374,0,0,0,1.391-46.839c-2.087-43.027-9.1-75.269-22.174-123.269a238.361,238.361,0,0,1-8.8-61.994l-.063-339.5c0-29.574,23.336-53.64,52.013-53.64a52.123,52.123,0,0,1,31.408,10.5v-88.8c0-29.585,23.6-53.652,52.6-53.652a53.067,53.067,0,0,1,32.782,11.286,53.375,53.375,0,0,1,106.108,8.256v3.7a52.434,52.434,0,0,1,31.914-10.895,53.116,53.116,0,0,1,37.9,15.868S1403.692,763.527,1403.692,788.392ZM1095.268,874.9c-17.271,0-30.792,14.241-30.792,32.42l.063,339.446a217.409,217.409,0,0,0,8.043,56.452c13.489,49.5,20.727,82.853,22.9,127.806a318.478,318.478,0,0,1-1.558,50.72c-.023.161-.109.77-.138.943-1.011,9.63,4.312,19.266,13.959,24.607,20.979,11.768,59.28,25.688,123.16,25.688h1.627c70.779-.259,107.085-19.334,122.424-30.683,7.181-5.249,11.246-12.838,11.223-20.864a14.066,14.066,0,0,1,.081-1.564c.31-2.57.621-5.416.954-8.5,3.329-30.81,8.894-82.381,47.264-122.626,27.51-30.016,33.087-97.432,37.157-146.657,1.765-21.324,3.157-38.175,6-49.254a10.314,10.314,0,0,1,.546-1.587l59.562-137.148c4.49-10.774,4.962-21.669,1.219-29.747-3.335-7.186-10.131-12.464-20.209-15.672-17.587-5.605-41.424,19.455-58.021,44.936l-73.016,143.443a10.627,10.627,0,0,1-7.577,5.634c-4.145.787-102.675,21.376-102.675,186.235a10.613,10.613,0,0,1-21.227,0c0-163.141,91.172-199.228,114.772-205.84l31.459-61.8V788.432a33.9,33.9,0,0,0-9.629-23.607,31.678,31.678,0,0,0-22.572-9.521h-.115c-17.357.069-31.385,14.149-31.989,32.087v296.281a10.61,10.61,0,0,1-21.221,0v-342.4a32.15,32.15,0,1,0-64.3,0v342.4a10.613,10.613,0,0,1-21.226,0V775.111a32.182,32.182,0,0,0-32.144-32.155c-17.6,0-31.379,14.241-31.379,32.431V903.066c.1,1.317.149,2.639.149,3.979v176.628a10.612,10.612,0,0,1-10.6,10.608h-.017a10.606,10.606,0,0,1-10.607-10.584l-.149-179.744C1125.147,887.67,1111.642,874.9,1095.268,874.9Z" transform="translate(-1043.255 -687.901)" fill="#fff"/>
    </g>
    <g id="botão_vermelho" data-name="botão vermelho" transform="translate(748.303 1215.932)">
      <circle id="Elipse_633" data-name="Elipse 633" cx="26" cy="26" r="26" transform="translate(-0.303 0.068)" fill="#c1002d"/>
      <ellipse id="Elipse_632" data-name="Elipse 632" cx="19.5" cy="19" rx="19.5" ry="19" transform="translate(6.697 7.068)" fill="#ff003c"/>
    </g>
    <g id="botão_verde" data-name="botão verde" transform="translate(661.046 1164.604)">
      <circle id="Elipse_633-2" data-name="Elipse 633" cx="26" cy="26" r="26" transform="translate(-0.046 0.396)" fill="#00b611"/>
      <ellipse id="Elipse_632-2" data-name="Elipse 632" cx="19" cy="19.5" rx="19" ry="19.5" transform="translate(6.954 6.396)" fill="#00e415"/>
    </g>
    <g id="botão_azul" data-name="botão azul" transform="translate(576.355 1197.112)">
      <ellipse id="Elipse_633-3" data-name="Elipse 633" cx="26.5" cy="26" rx="26.5" ry="26" transform="translate(-0.355 -0.112)" fill="#0068c1"/>
      <ellipse id="Elipse_632-3" data-name="Elipse 632" cx="19.5" cy="19" rx="19.5" ry="19" transform="translate(6.645 6.888)" fill="#058cff"/>
    </g>
    <g id="botão_verde-2" data-name="botão verde" transform="translate(493.375 1327.142)">
      <ellipse id="Elipse_633-4" data-name="Elipse 633" cx="26.5" cy="26" rx="26.5" ry="26" transform="translate(-0.375 -0.142)" fill="#c68200"/>
      <ellipse id="Elipse_632-4" data-name="Elipse 632" cx="19.5" cy="19" rx="19.5" ry="19" transform="translate(6.625 6.858)" fill="#ffa700"/>
    </g>
  </g>
</svg>
