<svg id="Grupo_106" data-name="Grupo 106" xmlns="http://www.w3.org/2000/svg" xmlns:xlink="http://www.w3.org/1999/xlink" width="1440" height="2560" viewBox="0 0 1440 2560">
  <defs>
    <clipPath id="clip-path">
      <rect id="Retângulo_35" data-name="Retângulo 35" width="34.97" height="35.5" fill="none"/>
    </clipPath>
    <clipPath id="clip-path-5">
      <rect id="Retângulo_56" data-name="Retângulo 56" width="1440" height="2560" fill="none" stroke="#707070" stroke-width="1"/>
    </clipPath>
    <clipPath id="clip-path-6">
      <rect id="Retângulo_34" data-name="Retângulo 34" width="668.6" height="187.6" fill="#d523c7"/>
    </clipPath>
    <clipPath id="clip-path-7">
      <rect id="Retângulo_16" data-name="Retângulo 16" width="417.122" height="156.677" fill="#dbff3c"/>
    </clipPath>
    <clipPath id="clip-path-8">
      <rect id="Retângulo_16-2" data-name="Retângulo 16" width="407.237" height="156.677" fill="#dbff3c"/>
    </clipPath>
    <clipPath id="clip-path-9">
      <rect id="Retângulo_16-3" data-name="Retângulo 16" width="417.122" height="149.147" fill="#dbff3c"/>
    </clipPath>
    <clipPath id="clip-path-10">
      <rect id="Retângulo_16-4" data-name="Retângulo 16" width="407.237" height="154.147" fill="#dbff3c"/>
    </clipPath>
    <clipPath id="clip-path-11">
      <rect id="Retângulo_16-5" data-name="Retângulo 16" width="417.122" height="156.677" fill="#d523c7"/>
    </clipPath>
    <clipPath id="clip-path-12">
      <rect id="Retângulo_36" data-name="Retângulo 36" width="511.2" height="190.7" fill="#dbff3c"/>
    </clipPath>
  </defs>
  <g id="Grupo_48" data-name="Grupo 48" transform="translate(1193 558)" opacity="0.35">
    <g id="Grupo_31" data-name="Grupo 31" transform="translate(0 0)" clip-path="url(#clip-path)">
      <path id="Caminho_11" data-name="Caminho 11" d="M15.792,1.428s1.474-3.212,3.08,0,3.212,9.037,5.372,10.493,9.388,4.87,9.388,4.87,3.012,1.306,0,2.962-8.034,3.264-9.339,5.271-5.721,9.539-5.721,9.539-1.255,2.108-2.158,0-3.867-7.48-5.573-9.288-9.59-5.322-9.59-5.322-2.811-1.2,0-2.561a48.625,48.625,0,0,0,8.385-5.07c1.707-1.457,6.157-10.9,6.157-10.9" transform="translate(0 0)" fill="#fff"/>
    </g>
  </g>
  <circle id="Elipse_587" data-name="Elipse 587" cx="9" cy="9" r="9" transform="translate(1369 281)" fill="#fff" opacity="0.35"/>
  <circle id="Elipse_588" data-name="Elipse 588" cx="9" cy="9" r="9" transform="translate(49 907)" fill="#fff" opacity="0.35"/>
  <circle id="Elipse_589" data-name="Elipse 589" cx="9" cy="9" r="9" transform="translate(308 1787)" fill="#fff" opacity="0.35"/>
  <g id="Grupo_49" data-name="Grupo 49" transform="translate(587 2490)" opacity="0.35">
    <g id="Grupo_31-2" data-name="Grupo 31" transform="translate(0 0)" clip-path="url(#clip-path)">
      <path id="Caminho_11-2" data-name="Caminho 11" d="M15.792,1.428s1.474-3.212,3.08,0,3.212,9.037,5.372,10.493,9.388,4.87,9.388,4.87,3.012,1.306,0,2.962-8.034,3.264-9.339,5.271-5.721,9.539-5.721,9.539-1.255,2.108-2.158,0-3.867-7.48-5.573-9.288-9.59-5.322-9.59-5.322-2.811-1.2,0-2.561a48.625,48.625,0,0,0,8.385-5.07c1.707-1.457,6.157-10.9,6.157-10.9" transform="translate(0 0)" fill="#fff"/>
    </g>
  </g>
  <g id="Grupo_50" data-name="Grupo 50" transform="translate(1387 2199)" opacity="0.35">
    <g id="Grupo_31-3" data-name="Grupo 31" transform="translate(0 0)" clip-path="url(#clip-path)">
      <path id="Caminho_11-3" data-name="Caminho 11" d="M15.792,1.428s1.474-3.212,3.08,0,3.212,9.037,5.372,10.493,9.388,4.87,9.388,4.87,3.012,1.306,0,2.962-8.034,3.264-9.339,5.271-5.721,9.539-5.721,9.539-1.255,2.108-2.158,0-3.867-7.48-5.573-9.288-9.59-5.322-9.59-5.322-2.811-1.2,0-2.561a48.625,48.625,0,0,0,8.385-5.07c1.707-1.457,6.157-10.9,6.157-10.9" transform="translate(0 0)" fill="#fff"/>
    </g>
  </g>
  <g id="Grupo_52" data-name="Grupo 52" transform="translate(861 1134)" opacity="0.35">
    <g id="Grupo_31-4" data-name="Grupo 31" transform="translate(0 0)" clip-path="url(#clip-path)">
      <path id="Caminho_11-4" data-name="Caminho 11" d="M15.792,1.428s1.474-3.212,3.08,0,3.212,9.037,5.372,10.493,9.388,4.87,9.388,4.87,3.012,1.306,0,2.962-8.034,3.264-9.339,5.271-5.721,9.539-5.721,9.539-1.255,2.108-2.158,0-3.867-7.48-5.573-9.288-9.59-5.322-9.59-5.322-2.811-1.2,0-2.561a48.625,48.625,0,0,0,8.385-5.07c1.707-1.457,6.157-10.9,6.157-10.9" transform="translate(0 0)" fill="#fff"/>
    </g>
  </g>
  <circle id="Elipse_591" data-name="Elipse 591" cx="9" cy="9" r="9" transform="translate(447 705)" fill="#fff" opacity="0.35"/>
  <circle id="Elipse_592" data-name="Elipse 592" cx="9" cy="9" r="9" transform="translate(120 2297)" fill="#fff" opacity="0.35"/>
  <g id="Grupo_de_máscara_2" data-name="Grupo de máscara 2" clip-path="url(#clip-path-5)">
    <g id="Grupo_21" data-name="Grupo 21" transform="translate(-154.8 2372.4)" opacity="0.3">
      <g id="Grupo_20" data-name="Grupo 20" transform="translate(-16 0)" clip-path="url(#clip-path-6)">
        <path id="Caminho_7" data-name="Caminho 7" d="M0,187.6H290.709s49.43.48,48.365-54.356c0,0,2.657-38.482,53.676-38.482h236.5s40.391-6.734,39.329-47.621S624.469,0,624.469,0H2.126Z" transform="translate(0 0)" fill="#d523c7"/>
      </g>
    </g>
    <g id="Grupo_29" data-name="Grupo 29" transform="translate(1594 -807)" opacity="0.3">
      <g id="Grupo_26" data-name="Grupo 26" transform="translate(-461 1280.2)">
        <g id="Grupo_22" data-name="Grupo 22" transform="translate(660.4 156.677) rotate(180)">
          <g id="Grupo_3" data-name="Grupo 3" clip-path="url(#clip-path-7)">
            <path id="Caminho_4" data-name="Caminho 4" d="M300.208,0H32.869S0,4.381,0,41.634,36.156,78.887,36.156,78.887H78.887s36.156,3.287,37.253,40.54,44.919,37.251,44.919,37.251H300.208" transform="translate(116.914 -0.001)" fill="#dbff3c"/>
          </g>
        </g>
        <g id="Grupo_23" data-name="Grupo 23" transform="translate(407.237 156.677) rotate(180)">
          <g id="Grupo_3-2" data-name="Grupo 3" transform="translate(0 0)" clip-path="url(#clip-path-8)">
            <path id="Caminho_4-2" data-name="Caminho 4" d="M0,156.677H261s32.09-4.381,32.09-41.634-35.3-37.253-35.3-37.253H216.076s-35.3-3.287-36.37-40.54S135.852,0,135.852,0H0" transform="translate(0 0.001)" fill="#dbff3c"/>
          </g>
        </g>
        <g id="Grupo_24" data-name="Grupo 24" transform="translate(658.4 232.077) rotate(180)">
          <g id="Grupo_3-3" data-name="Grupo 3" clip-path="url(#clip-path-9)">
            <path id="Caminho_4-3" data-name="Caminho 4" d="M300.208,149.147H32.869S0,144.976,0,109.514,36.156,74.052,36.156,74.052H78.887s36.156-3.129,37.253-38.591S161.059,0,161.059,0H300.208" transform="translate(116.914 0.001)" fill="#dbff3c"/>
          </g>
        </g>
        <g id="Grupo_25" data-name="Grupo 25" transform="translate(407.237 232.077) rotate(180)">
          <g id="Grupo_3-4" data-name="Grupo 3" transform="translate(0 0)" clip-path="url(#clip-path-10)">
            <path id="Caminho_4-4" data-name="Caminho 4" d="M0,0H261s32.09,4.311,32.09,40.962-35.3,36.651-35.3,36.651H216.076s-35.3,3.234-36.37,39.885-43.855,36.649-43.855,36.649H0" transform="translate(0 -0.001)" fill="#dbff3c"/>
          </g>
        </g>
      </g>
    </g>
    <circle id="Elipse_580" data-name="Elipse 580" cx="323.5" cy="323.5" r="323.5" transform="translate(-257 -78)" fill="#fff" opacity="0.07"/>
    <g id="Grupo_43" data-name="Grupo 43" transform="translate(-15 15)">
      <g id="Grupo_18" data-name="Grupo 18" transform="translate(425.359 1163.277) rotate(180)" opacity="0.3">
        <g id="Grupo_3-5" data-name="Grupo 3" transform="translate(38 -70)" clip-path="url(#clip-path-11)">
          <path id="Caminho_4-5" data-name="Caminho 4" d="M354.7,0H87.358S54.489,4.381,54.489,41.634,90.645,78.887,90.645,78.887h42.731s36.156,3.287,37.253,40.54,44.919,37.251,44.919,37.251H354.7" transform="translate(62.425 -0.001)" fill="#d523c7"/>
        </g>
      </g>
      <path id="Caminho_13" data-name="Caminho 13" d="M77.243,39.133A38.622,38.622,0,1,1,38.622.511,38.622,38.622,0,0,1,77.243,39.133" transform="translate(310.237 1155.185)" fill="#d523c7" opacity="0.3"/>
    </g>
    <g id="Grupo_44" data-name="Grupo 44" transform="translate(68 -137)">
      <g id="Grupo_42" data-name="Grupo 42" transform="translate(964 1775.9)" opacity="0.3">
        <g id="Grupo_41" data-name="Grupo 41" transform="translate(0 0.001)" clip-path="url(#clip-path-12)">
          <path id="Caminho_12" data-name="Caminho 12" d="M511.2,190.7H35.177S0,181.924,0,142.087,35.177,96.174,35.177,96.174H237.161s33.473-10.126,34.608-32.408S276.31.974,314.889.3,511.2.3,511.2.3Z" transform="translate(0 -0.002)" fill="#dbff3c"/>
        </g>
      </g>
      <path id="Caminho_14" data-name="Caminho 14" d="M77.243,39.133A38.622,38.622,0,1,1,38.622.511,38.622,38.622,0,0,1,77.243,39.133" transform="translate(845.237 1879.185)" fill="#dbff3c" opacity="0.3"/>
    </g>
  </g>
</svg>
