<svg id="Grupo_115" data-name="Grupo 115" xmlns="http://www.w3.org/2000/svg" xmlns:xlink="http://www.w3.org/1999/xlink" width="1440" height="2560" viewBox="0 0 1440 2560">
  <defs>
    <clipPath id="clip-path">
      <rect id="Retângulo_35" data-name="Retângulo 35" width="34.97" height="35.5" fill="none"/>
    </clipPath>
    <clipPath id="clip-path-4">
      <rect id="Retângulo_59" data-name="Retângulo 59" width="1440" height="2560" fill="none" stroke="#707070" stroke-width="1"/>
    </clipPath>
    <clipPath id="clip-path-5">
      <rect id="Retângulo_16" data-name="Retângulo 16" width="417.122" height="156.677" fill="#d523c7"/>
    </clipPath>
    <clipPath id="clip-path-6">
      <rect id="Retângulo_16-2" data-name="Retângulo 16" width="407.237" height="156.677" fill="#d523c7"/>
    </clipPath>
    <clipPath id="clip-path-7">
      <rect id="Retângulo_16-3" data-name="Retângulo 16" width="417.122" height="149.147" fill="#d523c7"/>
    </clipPath>
    <clipPath id="clip-path-8">
      <rect id="Retângulo_16-4" data-name="Retângulo 16" width="407.237" height="154.147" fill="#d523c7"/>
    </clipPath>
    <clipPath id="clip-path-9">
      <rect id="Retângulo_17" data-name="Retângulo 17" width="491.677" height="382.018" fill="#dbff3c"/>
    </clipPath>
    <clipPath id="clip-path-10">
      <rect id="Retângulo_15" data-name="Retângulo 15" width="766.91" height="373.068" fill="#d523c7"/>
    </clipPath>
    <clipPath id="clip-path-11">
      <rect id="Retângulo_34" data-name="Retângulo 34" width="668.6" height="186.4" fill="#dbff3c"/>
    </clipPath>
  </defs>
  <circle id="Elipse_629" data-name="Elipse 629" cx="9" cy="9" r="9" transform="translate(1289 279)" fill="#fff"/>
  <circle id="Elipse_630" data-name="Elipse 630" cx="9" cy="9" r="9" transform="translate(99 1632)" fill="#fff"/>
  <circle id="Elipse_631" data-name="Elipse 631" cx="9" cy="9" r="9" transform="translate(1335 1848)" fill="#fff"/>
  <g id="Grupo_112" data-name="Grupo 112" transform="translate(142 1217)">
    <g id="Grupo_31" data-name="Grupo 31" transform="translate(0 0)" clip-path="url(#clip-path)">
      <path id="Caminho_11" data-name="Caminho 11" d="M15.792,1.428s1.474-3.212,3.08,0,3.212,9.037,5.372,10.493,9.388,4.87,9.388,4.87,3.012,1.306,0,2.962-8.034,3.264-9.339,5.271-5.721,9.539-5.721,9.539-1.255,2.108-2.158,0-3.867-7.48-5.573-9.288-9.59-5.322-9.59-5.322-2.811-1.2,0-2.561a48.625,48.625,0,0,0,8.385-5.07c1.707-1.457,6.157-10.9,6.157-10.9" transform="translate(0 0)" fill="#fff"/>
    </g>
  </g>
  <g id="Grupo_113" data-name="Grupo 113" transform="translate(1083 2366)">
    <g id="Grupo_31-2" data-name="Grupo 31" transform="translate(0 0)" clip-path="url(#clip-path)">
      <path id="Caminho_11-2" data-name="Caminho 11" d="M15.792,1.428s1.474-3.212,3.08,0,3.212,9.037,5.372,10.493,9.388,4.87,9.388,4.87,3.012,1.306,0,2.962-8.034,3.264-9.339,5.271-5.721,9.539-5.721,9.539-1.255,2.108-2.158,0-3.867-7.48-5.573-9.288-9.59-5.322-9.59-5.322-2.811-1.2,0-2.561a48.625,48.625,0,0,0,8.385-5.07c1.707-1.457,6.157-10.9,6.157-10.9" transform="translate(0 0)" fill="#fff"/>
    </g>
  </g>
  <g id="Grupo_114" data-name="Grupo 114" transform="translate(413 2495)">
    <g id="Grupo_31-3" data-name="Grupo 31" transform="translate(0 0)" clip-path="url(#clip-path)">
      <path id="Caminho_11-3" data-name="Caminho 11" d="M15.792,1.428s1.474-3.212,3.08,0,3.212,9.037,5.372,10.493,9.388,4.87,9.388,4.87,3.012,1.306,0,2.962-8.034,3.264-9.339,5.271-5.721,9.539-5.721,9.539-1.255,2.108-2.158,0-3.867-7.48-5.573-9.288-9.59-5.322-9.59-5.322-2.811-1.2,0-2.561a48.625,48.625,0,0,0,8.385-5.07c1.707-1.457,6.157-10.9,6.157-10.9" transform="translate(0 0)" fill="#fff"/>
    </g>
  </g>
  <g id="Grupo_de_máscara_5" data-name="Grupo de máscara 5" clip-path="url(#clip-path-4)">
    <g id="Grupo_62" data-name="Grupo 62" transform="translate(-48.641 1636.478) rotate(180)" opacity="0.3">
      <g id="Grupo_26" data-name="Grupo 26" transform="translate(-518 -308.4)">
        <g id="Grupo_22" data-name="Grupo 22" transform="translate(856.359 1745.277) rotate(180)">
          <g id="Grupo_3" data-name="Grupo 3" clip-path="url(#clip-path-5)">
            <path id="Caminho_4" data-name="Caminho 4" d="M300.208,0H32.869S0,4.381,0,41.634,36.156,78.887,36.156,78.887H78.887s36.156,3.287,37.253,40.54,44.919,37.251,44.919,37.251H300.208" transform="translate(116.914 -0.001)" fill="#d523c7"/>
          </g>
        </g>
        <g id="Grupo_23" data-name="Grupo 23" transform="translate(490.237 1745.277) rotate(180)">
          <g id="Grupo_3-2" data-name="Grupo 3" transform="translate(0 0)" clip-path="url(#clip-path-6)">
            <path id="Caminho_4-2" data-name="Caminho 4" d="M0,156.677H261s32.09-4.381,32.09-41.634-35.3-37.253-35.3-37.253H216.076s-35.3-3.287-36.37-40.54S135.852,0,135.852,0H0" transform="translate(0 0.001)" fill="#d523c7"/>
          </g>
        </g>
        <g id="Grupo_24" data-name="Grupo 24" transform="translate(854.359 1820.677) rotate(180)">
          <g id="Grupo_3-3" data-name="Grupo 3" clip-path="url(#clip-path-7)">
            <path id="Caminho_4-3" data-name="Caminho 4" d="M300.208,149.147H32.869S0,144.976,0,109.514,36.156,74.052,36.156,74.052H78.887s36.156-3.129,37.253-38.591S161.059,0,161.059,0H300.208" transform="translate(116.914 0.001)" fill="#d523c7"/>
          </g>
        </g>
        <g id="Grupo_25" data-name="Grupo 25" transform="translate(490.237 1820.677) rotate(180)">
          <g id="Grupo_3-4" data-name="Grupo 3" transform="translate(0 0)" clip-path="url(#clip-path-8)">
            <path id="Caminho_4-4" data-name="Caminho 4" d="M0,0H261s32.09,4.311,32.09,40.962-35.3,36.651-35.3,36.651H216.076s-35.3,3.234-36.37,39.885-43.855,36.649-43.855,36.649H0" transform="translate(0 -0.001)" fill="#d523c7"/>
          </g>
        </g>
      </g>
      <path id="Caminho_10" data-name="Caminho 10" d="M77.243,39.133A38.622,38.622,0,1,1,38.622.511,38.622,38.622,0,0,1,77.243,39.133" transform="translate(335.359 1435.693) rotate(180)" fill="#d523c7"/>
    </g>
    <circle id="Elipse_626" data-name="Elipse 626" cx="323.5" cy="323.5" r="323.5" transform="translate(1011 633)" fill="#fff" opacity="0.07"/>
    <g id="Grupo_109" data-name="Grupo 109" transform="translate(25 -366)" opacity="0.3">
      <g id="Grupo_6" data-name="Grupo 6" transform="translate(1022.887 1457.84)">
        <g id="Grupo_5" data-name="Grupo 5" transform="translate(0 0)" clip-path="url(#clip-path-9)">
          <path id="Caminho_6" data-name="Caminho 6" d="M491.677,382.017H78.252s-31.406-8.758-32.137-36.49,22.643-36.49,22.643-36.49h46.749s31.406-7.3,33.6-31.384c0,0,3.652-30.653,12.417-37.219s24.1-11.677,24.1-11.677H332.442s30.678-6.569,30.678-38.681-34.33-34.3-34.33-34.3H300.3s-37.984-7.3-37.984-33.57-17.528-45.979-41.634-45.979H33.7S-2.094,72.576.1,40.464,16.9,7.623,16.9,7.623s2.191-6.569,37.251-7.3,437.529,0,437.529,0Z" transform="translate(0 0.001)" fill="#dbff3c"/>
        </g>
      </g>
      <path id="Caminho_8" data-name="Caminho 8" d="M77.243,38.622A38.622,38.622,0,1,1,38.622,0,38.622,38.622,0,0,1,77.243,38.622" transform="translate(977.359 1530.102) rotate(180)" fill="#dbff3c"/>
    </g>
    <g id="Grupo_110" data-name="Grupo 110" transform="translate(1363.359 3051.662) rotate(180)" opacity="0.3">
      <g id="Grupo_11" data-name="Grupo 11" transform="translate(327 -645.203)">
        <g id="Grupo_1" data-name="Grupo 1" transform="translate(-503 1046)" clip-path="url(#clip-path-10)">
          <path id="Caminho_2" data-name="Caminho 2" d="M0,0,483.18,1.645s36.706,2.193,36.706,42.183-44.921,35.06-44.921,35.06-32.322,9.31-32.322,36.156,21.364,35.06,21.364,35.06l156.13,2.738s31.775,14.792,30.678,38.347-28.488,38.349-28.488,38.349H328.694s-33.416,7.669-32.322,36.7,23.01,35.062,23.01,35.062l206.529,2.738s32.322,11.505,31.228,35.611-23.557,33.416-23.557,33.416H0Z" transform="translate(0 -0.001)" fill="#d523c7"/>
        </g>
      </g>
      <path id="Caminho_9" data-name="Caminho 9" d="M77.243,39.133A38.622,38.622,0,1,1,38.622.511,38.622,38.622,0,0,1,77.243,39.133" transform="translate(591.359 626.693) rotate(180)" fill="#d523c7"/>
    </g>
    <circle id="Elipse_627" data-name="Elipse 627" cx="323.5" cy="323.5" r="323.5" transform="translate(-244 1848)" fill="#fff" opacity="0.07"/>
    <g id="Grupo_111" data-name="Grupo 111" transform="translate(-243.8 1708)" opacity="0.3">
      <g id="Grupo_20" data-name="Grupo 20" clip-path="url(#clip-path-11)">
        <path id="Caminho_7" data-name="Caminho 7" d="M0,0H290.709s49.43-.477,48.365,54.008c0,0,2.657,38.236,53.676,38.236h236.5s40.391,6.691,39.329,47.317S624.469,186.4,624.469,186.4H2.126Z" transform="translate(0 0)" fill="#dbff3c"/>
      </g>
      <g id="Grupo_57" data-name="Grupo 57" transform="translate(96)" clip-path="url(#clip-path-11)">
        <path id="Caminho_15" data-name="Caminho 15" d="M0,0H290.709s49.43-.477,48.365,54.008c0,0,2.657,38.236,53.676,38.236h236.5s40.391,6.691,39.329,47.317S624.469,186.4,624.469,186.4H2.126Z" transform="translate(0 0)" fill="#dbff3c"/>
      </g>
    </g>
  </g>
</svg>
