<svg id="Grupo_107" data-name="Grupo 107" xmlns="http://www.w3.org/2000/svg" xmlns:xlink="http://www.w3.org/1999/xlink" width="1440" height="2560" viewBox="0 0 1440 2560">
  <defs>
    <clipPath id="clip-path">
      <rect id="Retângulo_35" data-name="Retângulo 35" width="34.97" height="35.5" fill="none"/>
    </clipPath>
    <clipPath id="clip-path-4">
      <rect id="Retângulo_57" data-name="Retângulo 57" width="1440" height="2560" fill="none" stroke="#707070" stroke-width="1"/>
    </clipPath>
    <clipPath id="clip-path-5">
      <rect id="Retângulo_34" data-name="Retângulo 34" width="668.6" height="187.6" fill="#d523c7"/>
    </clipPath>
    <clipPath id="clip-path-6">
      <rect id="Retângulo_16" data-name="Retângulo 16" width="417.122" height="156.677" fill="#dbff3c"/>
    </clipPath>
    <clipPath id="clip-path-7">
      <rect id="Retângulo_16-2" data-name="Retângulo 16" width="407.237" height="156.677" fill="#dbff3c"/>
    </clipPath>
    <clipPath id="clip-path-8">
      <rect id="Retângulo_16-3" data-name="Retângulo 16" width="417.122" height="149.147" fill="#dbff3c"/>
    </clipPath>
    <clipPath id="clip-path-9">
      <rect id="Retângulo_16-4" data-name="Retângulo 16" width="407.237" height="154.147" fill="#dbff3c"/>
    </clipPath>
    <clipPath id="clip-path-14">
      <rect id="Retângulo_17" data-name="Retângulo 17" width="491.677" height="382.341" fill="#dbff3c"/>
    </clipPath>
  </defs>
  <circle id="Elipse_620" data-name="Elipse 620" cx="9" cy="9" r="9" transform="translate(1301 1492)" fill="#fff" opacity="0.35"/>
  <g id="Grupo_66" data-name="Grupo 66" transform="translate(238 43)" opacity="0.35">
    <g id="Grupo_31" data-name="Grupo 31" transform="translate(0 0)" clip-path="url(#clip-path)">
      <path id="Caminho_11" data-name="Caminho 11" d="M15.792,1.428s1.474-3.212,3.08,0,3.212,9.037,5.372,10.493,9.388,4.87,9.388,4.87,3.012,1.306,0,2.962-8.034,3.264-9.339,5.271-5.721,9.539-5.721,9.539-1.255,2.108-2.158,0-3.867-7.48-5.573-9.288-9.59-5.322-9.59-5.322-2.811-1.2,0-2.561a48.625,48.625,0,0,0,8.385-5.07c1.707-1.457,6.157-10.9,6.157-10.9" transform="translate(0 0)" fill="#fff"/>
    </g>
  </g>
  <circle id="Elipse_607" data-name="Elipse 607" cx="9" cy="9" r="9" transform="translate(43 99)" fill="#fff" opacity="0.35"/>
  <g id="Grupo_89" data-name="Grupo 89" transform="translate(994 770)" opacity="0.35">
    <g id="Grupo_31-2" data-name="Grupo 31" transform="translate(0 0)" clip-path="url(#clip-path)">
      <path id="Caminho_11-2" data-name="Caminho 11" d="M15.792,1.428s1.474-3.212,3.08,0,3.212,9.037,5.372,10.493,9.388,4.87,9.388,4.87,3.012,1.306,0,2.962-8.034,3.264-9.339,5.271-5.721,9.539-5.721,9.539-1.255,2.108-2.158,0-3.867-7.48-5.573-9.288-9.59-5.322-9.59-5.322-2.811-1.2,0-2.561a48.625,48.625,0,0,0,8.385-5.07c1.707-1.457,6.157-10.9,6.157-10.9" transform="translate(0 0)" fill="#fff"/>
    </g>
  </g>
  <circle id="Elipse_621" data-name="Elipse 621" cx="9" cy="9" r="9" transform="translate(264 339)" fill="#fff" opacity="0.35"/>
  <g id="Grupo_90" data-name="Grupo 90" transform="translate(72 1167)" opacity="0.35">
    <g id="Grupo_31-3" data-name="Grupo 31" transform="translate(0 0)" clip-path="url(#clip-path)">
      <path id="Caminho_11-3" data-name="Caminho 11" d="M15.792,1.428s1.474-3.212,3.08,0,3.212,9.037,5.372,10.493,9.388,4.87,9.388,4.87,3.012,1.306,0,2.962-8.034,3.264-9.339,5.271-5.721,9.539-5.721,9.539-1.255,2.108-2.158,0-3.867-7.48-5.573-9.288-9.59-5.322-9.59-5.322-2.811-1.2,0-2.561a48.625,48.625,0,0,0,8.385-5.07c1.707-1.457,6.157-10.9,6.157-10.9" transform="translate(0 0)" fill="#fff"/>
    </g>
  </g>
  <circle id="Elipse_622" data-name="Elipse 622" cx="9" cy="9" r="9" transform="translate(1283 209)" fill="#fff" opacity="0.35"/>
  <circle id="Elipse_623" data-name="Elipse 623" cx="9" cy="9" r="9" transform="translate(1347 673)" fill="#fff" opacity="0.35"/>
  <circle id="Elipse_624" data-name="Elipse 624" cx="9" cy="9" r="9" transform="translate(34 2228)" fill="#fff" opacity="0.35"/>
  <g id="Grupo_de_máscara_3" data-name="Grupo de máscara 3" clip-path="url(#clip-path-4)">
    <circle id="Elipse_619" data-name="Elipse 619" cx="323.5" cy="323.5" r="323.5" transform="translate(-217 401)" fill="#fff" opacity="0.07"/>
    <g id="Grupo_86" data-name="Grupo 86" transform="translate(-45.8 721.4)" opacity="0.3">
      <g id="Grupo_20" data-name="Grupo 20" transform="translate(-16 0)" clip-path="url(#clip-path-5)">
        <path id="Caminho_7" data-name="Caminho 7" d="M0,187.6H290.709s49.43.48,48.365-54.356c0,0,2.657-38.482,53.676-38.482h236.5s40.391-6.734,39.329-47.621S624.469,0,624.469,0H2.126Z" transform="translate(0 0)" fill="#d523c7"/>
      </g>
    </g>
    <g id="Grupo_87" data-name="Grupo 87" transform="translate(1436.359 2780.478) rotate(180)" opacity="0.3">
      <g id="Grupo_26" data-name="Grupo 26" transform="translate(-518 -308.4)">
        <g id="Grupo_22" data-name="Grupo 22" transform="translate(856.359 1745.277) rotate(180)">
          <g id="Grupo_3" data-name="Grupo 3" clip-path="url(#clip-path-6)">
            <path id="Caminho_4" data-name="Caminho 4" d="M300.208,0H32.869S0,4.381,0,41.634,36.156,78.887,36.156,78.887H78.887s36.156,3.287,37.253,40.54,44.919,37.251,44.919,37.251H300.208" transform="translate(116.914 -0.001)" fill="#dbff3c"/>
          </g>
        </g>
        <g id="Grupo_23" data-name="Grupo 23" transform="translate(490.237 1745.277) rotate(180)">
          <g id="Grupo_3-2" data-name="Grupo 3" transform="translate(0 0)" clip-path="url(#clip-path-7)">
            <path id="Caminho_4-2" data-name="Caminho 4" d="M0,156.677H261s32.09-4.381,32.09-41.634-35.3-37.253-35.3-37.253H216.076s-35.3-3.287-36.37-40.54S135.852,0,135.852,0H0" transform="translate(0 0.001)" fill="#dbff3c"/>
          </g>
        </g>
        <g id="Grupo_24" data-name="Grupo 24" transform="translate(854.359 1820.677) rotate(180)">
          <g id="Grupo_3-3" data-name="Grupo 3" clip-path="url(#clip-path-8)">
            <path id="Caminho_4-3" data-name="Caminho 4" d="M300.208,149.147H32.869S0,144.976,0,109.514,36.156,74.052,36.156,74.052H78.887s36.156-3.129,37.253-38.591S161.059,0,161.059,0H300.208" transform="translate(116.914 0.001)" fill="#dbff3c"/>
          </g>
        </g>
        <g id="Grupo_25" data-name="Grupo 25" transform="translate(490.237 1820.677) rotate(180)">
          <g id="Grupo_3-4" data-name="Grupo 3" transform="translate(0 0)" clip-path="url(#clip-path-9)">
            <path id="Caminho_4-4" data-name="Caminho 4" d="M0,0H261s32.09,4.311,32.09,40.962-35.3,36.651-35.3,36.651H216.076s-35.3,3.234-36.37,39.885-43.855,36.649-43.855,36.649H0" transform="translate(0 -0.001)" fill="#dbff3c"/>
          </g>
        </g>
      </g>
      <path id="Caminho_10" data-name="Caminho 10" d="M77.243,39.133A38.622,38.622,0,1,1,38.622.511,38.622,38.622,0,0,1,77.243,39.133" transform="translate(335.359 1435.693) rotate(180)" fill="#dbff3c"/>
    </g>
    <circle id="Elipse_618" data-name="Elipse 618" cx="323.5" cy="323.5" r="323.5" transform="translate(927 1873)" fill="#fff" opacity="0.07"/>
    <g id="Grupo_84" data-name="Grupo 84" transform="translate(381.359 3800.478) rotate(180)" opacity="0.3">
      <g id="Grupo_26-2" data-name="Grupo 26" transform="translate(-518 -308.4)">
        <g id="Grupo_22-2" data-name="Grupo 22" transform="translate(856.359 1745.277) rotate(180)">
          <g id="Grupo_3-5" data-name="Grupo 3" clip-path="url(#clip-path-6)">
            <path id="Caminho_4-5" data-name="Caminho 4" d="M300.208,0H32.869S0,4.381,0,41.634,36.156,78.887,36.156,78.887H78.887s36.156,3.287,37.253,40.54,44.919,37.251,44.919,37.251H300.208" transform="translate(116.914 -0.001)" fill="#dbff3c"/>
          </g>
        </g>
        <g id="Grupo_23-2" data-name="Grupo 23" transform="translate(490.237 1745.277) rotate(180)">
          <g id="Grupo_3-6" data-name="Grupo 3" transform="translate(0 0)" clip-path="url(#clip-path-7)">
            <path id="Caminho_4-6" data-name="Caminho 4" d="M0,156.677H261s32.09-4.381,32.09-41.634-35.3-37.253-35.3-37.253H216.076s-35.3-3.287-36.37-40.54S135.852,0,135.852,0H0" transform="translate(0 0.001)" fill="#dbff3c"/>
          </g>
        </g>
        <g id="Grupo_24-2" data-name="Grupo 24" transform="translate(854.359 1820.677) rotate(180)">
          <g id="Grupo_3-7" data-name="Grupo 3" clip-path="url(#clip-path-8)">
            <path id="Caminho_4-7" data-name="Caminho 4" d="M300.208,149.147H32.869S0,144.976,0,109.514,36.156,74.052,36.156,74.052H78.887s36.156-3.129,37.253-38.591S161.059,0,161.059,0H300.208" transform="translate(116.914 0.001)" fill="#dbff3c"/>
          </g>
        </g>
        <g id="Grupo_25-2" data-name="Grupo 25" transform="translate(490.237 1820.677) rotate(180)">
          <g id="Grupo_3-8" data-name="Grupo 3" transform="translate(0 0)" clip-path="url(#clip-path-9)">
            <path id="Caminho_4-8" data-name="Caminho 4" d="M0,0H261s32.09,4.311,32.09,40.962-35.3,36.651-35.3,36.651H216.076s-35.3,3.234-36.37,39.885-43.855,36.649-43.855,36.649H0" transform="translate(0 -0.001)" fill="#dbff3c"/>
          </g>
        </g>
      </g>
      <path id="Caminho_10-2" data-name="Caminho 10" d="M77.243,39.133A38.622,38.622,0,1,1,38.622.511,38.622,38.622,0,0,1,77.243,39.133" transform="translate(335.359 1435.693) rotate(180)" fill="#dbff3c"/>
    </g>
    <g id="Grupo_85" data-name="Grupo 85" transform="translate(158 -1354)" opacity="0.3">
      <g id="Grupo_6" data-name="Grupo 6" transform="translate(1022.887 1452.859)">
        <g id="Grupo_5" data-name="Grupo 5" clip-path="url(#clip-path-14)">
          <path id="Caminho_6" data-name="Caminho 6" d="M491.677,0H78.252S46.846,8.765,46.114,36.521,68.757,73.042,68.757,73.042h46.749s31.406,7.306,33.6,31.41c0,0,3.652,30.678,12.417,37.251s24.1,11.687,24.1,11.687H332.442s30.678,6.574,30.678,38.714-34.33,34.33-34.33,34.33H300.3s-37.984,7.3-37.984,33.6-17.528,46.018-41.634,46.018H33.7S-2.094,309.7.1,341.842s16.8,32.869,16.8,32.869,2.191,6.574,37.251,7.3,437.529,0,437.529,0Z" transform="translate(0)" fill="#dbff3c"/>
        </g>
      </g>
      <path id="Caminho_8" data-name="Caminho 8" d="M77.243,39.133A38.622,38.622,0,1,1,38.622.511,38.622,38.622,0,0,1,77.243,39.133" transform="translate(977.359 1840.693) rotate(180)" fill="#dbff3c"/>
    </g>
  </g>
</svg>
